<?xml version="1.0" encoding="utf-8"?>
<!-- Generator: Adobe Illustrator 24.0.1, SVG Export Plug-In . SVG Version: 6.00 Build 0)  -->
<svg version="1.1" id="Capa_1" xmlns="http://www.w3.org/2000/svg" xmlns:xlink="http://www.w3.org/1999/xlink" x="0px" y="0px"
	 viewBox="0 0 144.82 175.75" style="enable-background:new 0 0 144.82 175.75;" xml:space="preserve">
<style type="text/css">
	.st0{fill-rule:evenodd;clip-rule:evenodd;fill:#F39317;}
	.st1{fill-rule:evenodd;clip-rule:evenodd;fill:#FFFFFF;}
	.st2{fill-rule:evenodd;clip-rule:evenodd;}
	.st3{fill-rule:evenodd;clip-rule:evenodd;fill:#E42313;}
	.st4{fill-rule:evenodd;clip-rule:evenodd;fill:#E3161E;}
	.st5{fill-rule:evenodd;clip-rule:evenodd;fill:#A56727;}
</style>
<g>
	<path class="st0" d="M107.16,9.38C98.61,9.12,89.98,7.3,81.36,4.01c-2.94-1.14-5.88-2.44-8.82-3.89V0c-0.05,0-0.09,0.02-0.12,0.05
		C72.38,0.02,72.33,0,72.3,0v0.12c-3.1,1.52-6.19,2.87-9.29,4.03c-8.58,3.25-17.13,5-25.64,5.24C24.76,9.72,12.28,6.68,0,0
		c0,0.02,0,0.05,0,0.07v27.7c2.04,48.61,15.24,86.05,37.37,114.58c7.54,9.74,16.11,18.44,25.64,26.19c3.01,2.44,6.09,4.79,9.29,7.04
		v0.17c0.02-0.02,0.07-0.05,0.12-0.07c0.02,0.02,0.07,0.05,0.12,0.07v-0.17c3.01-2.16,5.95-4.38,8.82-6.68
		c9.57-7.75,18.22-16.45,25.81-26.19c22.28-28.58,35.59-66.12,37.66-114.94V0.07c0-0.02,0-0.05,0-0.07
		C132.43,6.73,119.87,9.76,107.16,9.38L107.16,9.38z"/>
	<path class="st1" d="M4.76,29.43c11.11-5.24,21.97-7.89,32.61-7.82c8.72,0.07,17.28,1.94,25.64,5.71c2.35,1.04,4.67,2.25,6.97,3.58
		v21.02c-2.49,0.26-4.83,1.02-6.97,2.13c-4.98,2.65-8.67,7.42-9.93,13.06H9.34C6.82,54.86,5.33,42.23,4.76,29.43L4.76,29.43z"/>
	<path class="st2" d="M72.09,55.22c0.12,0,0.21,0,0.33,0c3.29,0.07,6.4,1.14,8.93,2.96c4.08,2.91,6.75,7.68,6.75,13.08
		c0,5.38-2.68,10.17-6.75,13.08c-2.54,1.8-5.64,2.89-8.93,2.96c-0.12,0-0.21,0-0.33,0c-3.37,0-6.49-1.04-9.08-2.84
		c-4.19-2.89-6.97-7.73-6.97-13.2c0-5.47,2.77-10.33,6.97-13.22C65.6,56.26,68.73,55.22,72.09,55.22L72.09,55.22z"/>
	<path class="st1" d="M135.46,67.11H91.07c-1.21-5.57-4.83-10.28-9.72-12.94c-2.06-1.14-4.36-1.9-6.75-2.2V31.14
		c2.06-1.47,4.34-2.82,6.75-4.01c7.37-3.63,16.16-5.78,25.81-5.83c10.17-0.05,21.28,2.27,32.59,7.77
		C139.16,41.88,137.97,54.86,135.46,67.11L135.46,67.11z"/>
	<path class="st3" d="M140.2,25.64c-11.21-5.38-22.32-7.75-33.04-7.61c-8.96,0.12-17.61,2.01-25.81,5.36
		c-3.06,1.26-6.02,2.73-8.93,4.36c-0.05,0.02-0.09,0.05-0.12,0.07v0.09h-0.02c-3.06-1.68-6.14-3.15-9.27-4.38
		c-8.41-3.34-17.02-5.05-25.64-5.1c-10.95-0.05-21.94,2.58-32.73,8.01c-0.24-6.4-0.26-12.39-0.07-18.86l0.14,0.07
		c10.9,4.55,21.8,6.68,32.66,6.49c8.58-0.17,17.13-1.78,25.64-4.83c3.15-1.11,6.28-2.42,9.41-3.93c2.94,1.42,5.9,2.68,8.93,3.77
		c8.39,3.01,17.09,4.74,25.81,5c11.16,0.36,22.4-1.73,33.06-6.56C140.39,13.63,140.39,19.65,140.2,25.64L140.2,25.64z"/>
	<path class="st1" d="M22.02,71.66H10.33c2.78,12.24,6.63,24.09,11.68,35.37V71.66L22.02,71.66z"/>
	<path class="st1" d="M44.17,71.66H33.11v56.07c0,0,0.03,0.38,4.27,6.4c2.15,3.04,4.41,6.01,6.8,8.92V71.66L44.17,71.66z"/>
	<path class="st1" d="M66.64,89.89c-1.26-0.37-2.48-0.86-3.63-1.47c-3.23-1.7-5.92-4.28-7.75-7.43v74.19
		c2.48,2.44,5.06,4.81,7.75,7.11c1.19,1.01,2.4,2.01,3.63,2.99V89.89L66.64,89.89z"/>
	<path class="st1" d="M89.08,80.67c0,0,0.01-0.01,0.01-0.01c-1.8,3.23-4.49,5.91-7.73,7.67c-1.15,0.62-2.38,1.13-3.65,1.52v75.81
		c1.23-0.99,2.45-1.99,3.65-3.01c2.68-2.28,5.25-4.62,7.73-7.02V80.67L89.08,80.67z"/>
	<path class="st1" d="M134.49,71.66h-12.18v36.43C121.92,108.94,130.62,90.73,134.49,71.66L134.49,71.66z"/>
	<path class="st1" d="M111.24,71.66h-11.09v71.97c-1.28,1.54,3.66-4.39,7.01-9.12c1.41-1.99,2.77-4.01,4.08-6.06V71.66L111.24,71.66
		z"/>
	<path class="st4" d="M33.11,71.66v56.07c-4.19-6.64-7.89-13.53-11.09-20.69V71.66H33.11L33.11,71.66z"/>
	<path class="st4" d="M55.27,80.95v74.22c-3.96-3.89-7.65-7.92-11.09-12.11v-71.4h8.48C52.73,75.05,53.68,78.21,55.27,80.95
		L55.27,80.95z"/>
	<path class="st4" d="M77.71,89.84v75.81c-1.73,1.38-3.48,2.75-5.28,4.08c-1.99-1.45-3.91-2.94-5.78-4.43V89.89
		c1.73,0.52,3.58,0.78,5.45,0.78C74.06,90.67,75.91,90.39,77.71,89.84L77.71,89.84z"/>
	<path class="st4" d="M100.15,71.66v71.97c-3.44,4.15-7.11,8.15-11.07,11.99V80.67c1.49-2.68,2.37-5.74,2.44-9.01H100.15
		L100.15,71.66z"/>
	<path class="st4" d="M122.31,71.66v36.43c-3.2,7.04-6.87,13.84-11.07,20.38V71.66H122.31L122.31,71.66z"/>
	<path class="st2" d="M123.46,51.71c0,0.08,0,0.16,0,0.24c-0.09,7.88-4.29,12.49-12.15,13.33h-2.16c-2.59-0.09-7.99-0.81-8.74-2.05
		c-0.1-0.17-0.11-0.34-0.03-0.52c0.49-0.74,2.72-0.02,4.34,0.5l0.39,0.13c1.15,0.37,2.92,0.26,4.09,0.19c0,0,0.03,0,0.06,0
		c0-0.07,0-7.26,0-7.33c-0.06,0-1.58-0.07-1.58-0.07l-1.54-0.36c-6.8-1.91-9.2-6.28-9.2-9.83c0-0.09,0-0.17,0-0.25
		c0.14-4.39,3.72-8.08,8.92-9.21c-0.08-0.07-0.47-0.42-0.47-0.42c-0.86-0.75-1.66-1.45-2.14-2.56c-0.48-1.11-0.72-2.16-0.72-3.14
		c0-0.99,0.25-1.91,0.75-2.71c1.09-1.77,3.32-2.87,6.09-3.02l0,0l1.95,0.28c1.09,0.16,5.22,2.37,5.46,4.03
		c0.07,0.46-0.19,0.83-0.76,1.09l-0.02,0.01l-0.02-0.02c-1.29-1.49-4.15-3.33-6.18-3.57l-1.14,0.07c-1.34,0.07-2.64,1.05-3.24,2.44
		c-0.3,0.68-0.44,1.31-0.44,1.88c0,2.28,2.11,3.78,4.21,5.03c0-0.12,0-4.24,0-4.24l9.78,0.02l0.08,0.12
		c0.16,0.22,0.25,0.35,0.25,0.58c0,0.17-0.06,0.39-0.19,0.74l-0.01,0.02c0,0-6.84,0-6.91,0c0,0.07,0,2.92,0,2.99
		c1.96,0,4.05,0.19,6.22,0.58l0.41,0.37l0.14,0.45c-0.42,1.13-2,0.71-3.27,0.37c0,0-0.96-0.23-0.96-0.23l-1.33-0.05
		c0,0-0.66-0.1-0.85-0.12c0.11,0.09,0.3,0.25,0.3,0.25C119.4,41,123.46,44.49,123.46,51.71L123.46,51.71L123.46,51.71z
		 M109.26,54.44c0-0.08,0-15.96,0-16.02c-2.6-0.63-5.16,0.17-7.03,2.21c-1.47,1.61-2.28,3.76-2.28,5.84c0,0.82,0.13,1.63,0.39,2.38
		c0.97,2.82,3.63,4.73,7.5,5.38C107.83,54.23,109.19,54.43,109.26,54.44L109.26,54.44L109.26,54.44z M112.13,47.04
		c1.37,0.43,1.81,0.4,3.25,0.06c0.83-0.2,1.14,0.04,1.25,0.21c0.15,0.23,0.11,0.56-0.12,0.88c-0.53,0.75-1.87,1.29-3.67,0.81
		c0,0-0.71-0.18-0.78-0.2c0,0.09,0,5.79,0,5.87c0.06,0,1.23-0.03,1.23-0.03c1.9-0.08,4.77-0.19,5.26,0.29l0.07,0.18
		c-0.01,0.26-0.12,0.49-0.32,0.68c-0.96,0.89-3.88,0.77-5.44,0.71c0,0-0.66-0.02-0.73-0.02c0,0.07,0,6.96,0,7.05
		c7.26-1.56,9.06-6.52,9.06-11.03c0-0.66-0.04-1.3-0.1-1.93c-0.51-4.78-3.78-8.7-8.96-10.78C112.13,39.88,112.13,46.99,112.13,47.04
		L112.13,47.04z"/>
	<path class="st5" d="M80.4,66.1c-0.02-0.01-0.04-0.02-0.03-0.01c-0.7-0.47-1.36-0.63-1.95-0.47c-0.76,0.2-1.45,0.94-2.05,2.18
		c1.51,2.23,2.27,4.49,2.27,6.77c0,1.05-0.16,2.09-0.48,3.14c-0.91,3.03-3.15,6.13-6.65,9.21c0.22,0.01,0.6,0.02,0.6,0.02
		c2.04,0,4.01-0.39,5.85-1.15c3.38-4.42,5.07-8.51,5.07-12.24C83.01,70.88,82.14,68.39,80.4,66.1L80.4,66.1z"/>
	<path class="st5" d="M87.62,72.02c0-1-0.12-1.99-0.37-2.97c-0.45-1.73-1.28-3.28-2.46-4.6c-0.82-0.63-1.55-0.86-2.17-0.68
		c-0.69,0.19-1.28,0.9-1.76,2.1c1.77,2.36,2.66,4.92,2.66,7.66c0,3.63-1.56,7.59-4.66,11.84C84.17,82.82,87.62,77.38,87.62,72.02
		L87.62,72.02z"/>
	<path class="st5" d="M72.76,69.54c0.76-1.53,1.83-2.2,3.18-1.99c0.66-1.37,1.44-2.19,2.31-2.44c0.68-0.19,1.42-0.03,2.2,0.45
		c0.55-1.32,1.24-2.11,2.05-2.33c0.76-0.2,1.64,0.08,2.61,0.83l0.03,0.03c0.95,1.06,1.68,2.24,2.18,3.52
		c-0.15-0.67-0.34-1.31-0.57-1.91c-0.06-0.01-0.13-0.03-0.18-0.14c-0.96-1.78-2.37-3.13-4.09-3.9c-1.23-0.57-2.58-0.82-4.01-0.75
		c-1.39,0.07-2.75,0.46-3.95,1.13c-1.88,1.01-3.35,2.61-4.25,4.61c-0.04,0.32-0.07,0.62-0.07,0.88c0,0.61,0.12,1.06,0.36,1.35
		C70.94,69.33,71.64,69.54,72.76,69.54L72.76,69.54z"/>
	<path class="st5" d="M82.69,61.21c1.06,0.47,2.03,1.19,2.87,2.08c-1.01-1.68-2.32-3.2-3.87-4.41c-2.94-1.84-5.69-2.33-8.17-1.44
		c-2.38,0.84-4.63,2.93-6.68,6.21c-0.13,0.32-0.19,0.62-0.19,0.89c0,0.28,0.07,0.52,0.2,0.74c0.39,0.65,1.38,1.08,2.94,1.27
		c0.01-0.03,0.02-0.06,0.02-0.06l-0.02,0.06l0.01-0.08c0.94-2.09,2.5-3.77,4.49-4.87c1.32-0.72,2.73-1.12,4.18-1.19
		C79.96,60.35,81.42,60.62,82.69,61.21L82.69,61.21z"/>
	<path class="st5" d="M63.43,61.66c0.3,0.97,1.31,1.55,2.98,1.74c2.08-3.36,4.41-5.53,6.92-6.43c1.52-0.53,3.08-0.57,4.71-0.18
		c-1.92-0.8-3.91-1.23-5.97-1.23c-1.4,0-2.83,0.2-4.24,0.59l0.04-0.02c0,0-0.13,0.07-0.09,0.06C65.57,57.28,64.14,59.07,63.43,61.66
		L63.43,61.66z"/>
	<path class="st5" d="M60.24,64.49c0,1.07,0.19,2.09,0.57,3.05c0.93,2.27,2.89,4.12,5.83,5.5c0.87,0.39,1.61,0.69,2.36,0.87
		c0.71,0.17,1.4,0.23,2.14,0.19c0,0,0.29-0.09,0.27-0.08c0.77-0.7,1.12-1.19,1.26-1.76c0.06-0.23,0.09-0.47,0.09-0.73
		c0-0.44-0.08-0.94-0.2-1.49c-1.18-0.03-1.94-0.29-2.39-0.81c-0.33-0.41-0.49-0.96-0.49-1.72c0-0.13,0.01-0.27,0.02-0.42
		c-1.69-0.22-2.8-0.71-3.28-1.45c-0.2-0.3-0.3-0.65-0.3-1.04c0-0.22,0.05-0.46,0.11-0.71c-1.85-0.23-2.97-0.95-3.31-2.18l0-0.12
		c0.52-1.98,1.49-3.54,2.86-4.69c-1.71,0.76-3.24,1.77-4.54,3.03C60.58,61.54,60.24,63.06,60.24,64.49L60.24,64.49z"/>
	<path class="st5" d="M71.8,77.63c0.08-0.23,0.12-0.48,0.12-0.76c0-0.28-0.04-0.59-0.12-0.93c-0.1-0.43-0.28-0.9-0.54-1.36
		c-0.84,0.06-1.61,0-2.36-0.19c-0.87-0.21-1.7-0.56-2.46-0.91c-3.02-1.41-5.13-3.41-6.08-5.78c-0.41-1.01-0.62-2.1-0.62-3.24
		c0-1.14,0.22-2.34,0.63-3.59c-1.56,1.79-2.73,3.88-3.36,6.09c0.01,0.05,0.02,0.11,0.02,0.1c0.55,4.15,2,7.24,4.31,9.19
		c2.14,1.82,5.15,2.71,8.91,2.66c0.27-0.05,0.49-0.16,0.66-0.25C71.33,78.45,71.64,78.08,71.8,77.63L71.8,77.63z"/>
	<path class="st5" d="M60.99,76.66c-2.18-1.85-3.61-4.68-4.28-8.38c-0.19,1.02-0.3,2.02-0.3,2.99c0,1.46,0.21,2.94,0.64,4.41
		c1.15,2.96,2.61,5.18,4.36,6.6c1.87,1.49,4.09,2.08,6.6,1.76c0.43-0.04,0.84-0.15,1.25-0.35c0.45-0.24,0.78-0.56,0.98-0.96
		c0.17-0.34,0.25-0.71,0.25-1.13c0-0.13-0.01-0.25-0.02-0.39c-0.07-0.55-0.26-1.14-0.57-1.75C66.13,79.44,63.21,78.53,60.99,76.66
		L60.99,76.66z"/>
	<path class="st5" d="M68.07,84.52c-2.18,0.29-4.15-0.1-5.88-1.13c2.44,2,5.45,3.23,8.59,3.5c3.64-3.14,5.95-6.28,6.87-9.32
		c0.31-1.01,0.47-2.02,0.47-3.03c0-2.19-0.73-4.36-2.19-6.49c-1.2-0.19-2.13,0.43-2.81,1.87c0,0-0.02,0.04-0.04,0.08
		c0.12,0.57,0.2,1.07,0.2,1.54c0,0.3-0.03,0.59-0.11,0.86c-0.16,0.67-0.58,1.26-1.43,2.01c0.24,0.5,0.43,0.98,0.55,1.43
		c0.09,0.34,0.13,0.68,0.13,0.99c0,0.34-0.05,0.67-0.16,0.98c-0.2,0.56-0.57,1.01-1.11,1.33c-0.22,0.11-0.47,0.2-0.73,0.27
		c0.28,0.63,0.47,1.22,0.54,1.76c0.02,0.16,0.03,0.31,0.03,0.47c0,0.46-0.1,0.91-0.3,1.34c-0.28,0.5-0.68,0.89-1.2,1.15
		C69.07,84.33,68.59,84.47,68.07,84.52L68.07,84.52z"/>
	<path class="st2" d="M61.36,50.19c-0.4-1.4-1.09-2.75-2.04-4.12c0.09-0.45,0.07-0.85,0.05-1.3c0-0.19-0.02-0.38-0.02-0.59
		c0-0.12,0-0.24,0-0.36c0.02-0.38,0.02-0.73-0.07-1.07c1.16-1.99,1.49-3.77,1.21-6.16c-0.36,0.21-0.69,0.43-0.95,0.76
		c-0.07-0.38-0.12-0.76-0.19-1.16c-0.02-0.14-0.21-0.19-0.31-0.07c-0.31,0.38-0.62,0.73-0.95,1.11c-0.95,1.09-1.82,2.23-1.75,3.82
		c0,0.09,0,0.19,0,0.26c0,0.02,0,0.02,0,0.02l-0.09,0.14c-0.92,1.18-1.33,2.49-1.75,3.82c-0.14,0.47-0.28,0.95-0.45,1.42v-9.86
		l-0.05-0.05c-0.24-0.21-0.43-0.38-0.59-0.55c-0.52-0.45-0.95-0.66-0.97-1.8c-0.02-0.52,0.33-0.85,0.55-1
		c0.17-0.14,0.4-0.12,0.76,0.09c0.05,0.19,0.09,0.33,0.07,0.45c-0.05,0.59-0.62,0.73,0.33,1.42c0.28,0.19,0.62,0.17,1-0.36
		c0.17-0.24,0.28-0.5,0.31-0.81c0.05-0.43-0.02-0.88-0.21-1.3c-0.19-0.43-0.47-0.81-0.83-1.09c-0.24-0.17-0.52-0.31-0.83-0.33h-0.05
		c-0.85,0.09-1.42,0.36-1.8,0.76c-0.4,0.4-0.59,0.95-0.73,1.64c-0.12,0.71,0.02,1.37,0.36,2.01c0.28,0.59,0.73,1.16,1.23,1.64v15.52
		c-0.02,0.02-0.07,0.02-0.09,0.05c-0.5,0.33-0.52,1.37-0.85,1.94c-0.4,0.64-1.28,0.76-1.8,1.26c-0.74,0.68-1.7,2.15-1.68,2.11V22.63
		c-0.66-0.12-1.35-0.24-2.01-0.33v0.71h-0.66h-0.83c-0.26-1.28-2.3-1.21-2.56-0.31h-1c-0.64-1.42-2.32-1.09-2.8,0h-0.76h-0.52
		c-0.62-1.23-2.23-1.14-2.82,0h-1.07c-0.05-0.81-1.02-0.9-1.71-0.62c-0.47,0.21-0.81,0.57-0.71,1h-0.47h-0.9v-1
		c-0.69,0.07-1.37,0.17-2.06,0.26v10.71c-1-2.58-1.78-5.24-2.44-7.92c-0.02-0.19-0.36-0.09-0.33,0.07l2.77,12.75v25.5h19.72
		c0.01-0.11,0,0.24,0,0.52c0,0.45,1.47,0.38,1.66,0.36c0.14-0.02,0.27-0.03,0.4-0.04l-0.05,2.82h4.1c0.08-0.31,0.15-0.6,0.23-0.91
		c0,0.01-0.01,0.02-0.01,0.03c0.01-0.03,0.02-0.07,0.03-0.1c-0.01,0.02-0.01,0.05-0.02,0.07c0.01-0.03,0.03-0.07,0.03-0.11
		c0.89-3.14,2.53-6.01,4.74-8.3c1.11-1.16,2.39-2.2,3.77-3.06C61.92,53.06,61.78,51.59,61.36,50.19L61.36,50.19L61.36,50.19z
		 M46.33,50.17c-0.28-0.36-3.7-4.48-5.1-6.21c1.75-1.11,3.22-2.39,4.22-4.19c0.14-0.26,0.28-0.55,0.4-0.85
		c0.19-0.05,0.33-0.12,0.47-0.24V50.17L46.33,50.17L46.33,50.17z M46.33,36.33c-0.24-0.19-0.54-0.28-0.88-0.28
		c-0.55,0-1.02,0.28-1.28,0.71l-1.26,0.59c-0.14-0.52-0.4-1.04-0.73-1.59c-0.33-0.5-0.76-1-1.28-1.47c0.5-0.83,0.55-1.66,0.31-2.54
		c-0.26-0.85-0.83-1.75-1.54-2.73c0.12-0.19,0.21-0.38,0.28-0.59c0.07-0.24,0.09-0.52,0.02-0.9c-0.05-0.33-0.33-0.71-0.66-1.14
		c-0.47-0.62-1.07-1.37-1.23-2.3c-0.02-0.17-0.28-0.17-0.33-0.02c-0.05,0.26-0.12,0.5-0.24,0.71c-0.26,0.52-0.62,0.92-0.95,1.3
		c-0.45,0.5-0.81,0.92-0.85,1.42c-0.02,0.26,0.02,0.55,0.12,0.83c0.07,0.24,0.17,0.45,0.28,0.69c-0.09,0.12-0.19,0.26-0.26,0.38
		c-1,1.45-2.04,2.99-1.07,4.88c-0.43,0.38-0.83,0.83-1.21,1.33c-0.38,0.5-0.76,1.04-1.09,1.64l-0.97-0.52
		c-0.05-0.07-0.07-0.12-0.12-0.19c-0.31-0.36-0.76-0.52-1.18-0.5c-0.5,0.02-1.02,0.28-1.26,0.81V23.98c0.43,0.31,0.88,0.5,1.26,0.45
		c0.21-0.02,0.43-0.12,0.57-0.28c0.19,0.24,0.38,0.45,0.62,0.66c0.36,0.36,0.76,0.66,1.19,1c0.31-1.37,0.45-2.09,1.18-2.2
		c0.76-0.12,1.52,1.04,1.97,1.9c0.45-1.09,0.95-1.9,1.52-2.39h0.26h0.64c0.71,0.59,1.14,1.45,1.33,2.44
		c0.64-1.11,1.16-2.18,2.04-2.09c0.85,0.1,1.09,1.26,1.18,2.35c0.52-0.66,1.09-1.28,1.71-1.82c0.4,0.31,0.71,0.45,1.04,0.45
		c0.28,0,0.55-0.14,0.88-0.38V36.33L46.33,36.33z"/>
	<path class="st5" d="M40.86,44.03c1.52,1.87,3.06,3.74,4.6,5.59c0.24,0.28,0.47,0.57,0.71,0.88v2.94l-0.71-0.5l-7.54-5.05
		c-0.05-0.02-0.14-0.02-0.19,0l-8.86,6.16v-8.65l1.11,5.19c0.02,0.09,0.14,0.14,0.24,0.12c0.02,0,0.07-0.02,0.07-0.07
		c0.36-0.52,0.71-1.04,1.11-1.56c0.97-1.35,2.13-2.68,3.44-4c0-0.02,0-0.02,0-0.02c0.02,0,0.02-0.02,0.02-0.02
		c0.02-0.07,0.02-0.14-0.02-0.21c-1.07-0.88-2.01-1.9-2.87-2.99h11.47c-0.73,0.73-1.59,1.37-2.54,1.97
		C40.81,43.84,40.81,43.96,40.86,44.03L40.86,44.03z"/>
	<path class="st1" d="M25.97,30.43c0.76,2.39,1.68,4.74,2.82,6.99c0,0,0,0,0,0.02c-0.02,0.5,0.26,1.09,0.73,1.35
		c0.24,0.38,0.45,0.76,0.69,1.11c0.38,0.59,0.76,1.16,1.18,1.73c0.9,1.21,1.9,2.35,3.08,3.32c-0.05,0.02-2.5,2.67-4.24,5.17
		l-0.02-0.07L25.97,30.43L25.97,30.43z"/>
	<path class="st5" d="M46.33,56.26H28.7v-1.71c0.09-0.02,9.05-6.28,9.12-6.33c0.66,0.4,8.46,5.66,8.51,5.69V56.26L46.33,56.26z"/>
	<path class="st2" d="M45.45,38.65c-0.55-0.02-1.07-0.36-1.14-0.97v-0.02c0-0.02,0-0.02,0-0.02c0-0.02,0-0.02,0-0.05
		c-0.07-0.78,0.55-1.18,1.14-1.18c0.57,0,1.11,0.36,1.11,1.11C46.57,38.3,46,38.65,45.45,38.65L45.45,38.65z"/>
	<path class="st5" d="M45.45,38.98c-0.95,0-1.64-0.85-1.45-1.78l-1.14,0.52c-0.03,0.02-0.06,0.02-0.09,0.01v1.46
		c0,0.07-0.09,0.17-0.17,0.17h-2.13c-0.07,0-0.17-0.09-0.17-0.17v-1.02h-5v1.02c0,0.07-0.09,0.17-0.17,0.17h-2.13
		c-0.07,0-0.17-0.09-0.17-0.17v-1.88c-0.05,0.08-0.1,0.16-0.14,0.25c-0.05,0.07-0.17,0.12-0.24,0.07l-0.76-0.4
		c0.1,0.45-0.02,0.9-0.31,1.23s-0.71,0.52-1.18,0.52c-0.05,0-0.07,0-0.12,0c0,0,0,0,0-0.02c0,0,0,0-0.02,0h-0.02
		c-0.02,0-0.02,0-0.02,0c0.07,0.09,0.12,0.21,0.19,0.31c0.38,0.62,0.76,1.21,1.18,1.8c0.09,0.14,0.19,0.28,0.31,0.43h12.06
		c0.66-0.73,1.23-1.54,1.68-2.46c0-0.02,0-0.02,0.02-0.05C45.45,38.98,45.45,38.98,45.45,38.98L45.45,38.98z"/>
	<path class="st5" d="M36.12,29.6c-0.91,1.38-1.91,2.82-0.99,4.56c0.01,0,0.01-0.01,0.02-0.01c0.07,0,0.17,0.07,0.17,0.17v1.92h5.07
		v-1.92c0-0.1,0.11-0.17,0.22-0.18c0.45-0.73,0.51-1.49,0.28-2.28c-0.24-0.85-0.81-1.73-1.54-2.7c-0.05-0.05-0.05-0.14-0.02-0.19
		c0.14-0.24,0.26-0.4,0.31-0.62c0.07-0.19,0.07-0.43,0.02-0.76c-0.02-0.24-0.28-0.59-0.62-1c-0.38-0.5-0.85-1.11-1.11-1.85
		c-0.12,0.26-0.26,0.5-0.4,0.71c-0.21,0.33-0.47,0.59-0.71,0.88c-0.38,0.43-0.71,0.81-0.76,1.21c-0.02,0.24,0.02,0.45,0.1,0.69
		c0.09,0.24,0.19,0.5,0.31,0.76c0.02,0.02,0.02,0.12,0,0.17C36.33,29.29,36.23,29.43,36.12,29.6L36.12,29.6z"/>
	<path class="st2" d="M39.08,29.77c-0.31-0.5-0.76-0.78-1.26-0.78c-0.5,0-0.95,0.28-1.26,0.78c-0.31,0.45-0.5,1.09-0.5,1.78
		c0,0.69,0.19,1.33,0.5,1.8c0.31,0.47,0.76,0.78,1.26,0.78c0.5,0,0.95-0.31,1.26-0.78c0.31-0.47,0.5-1.11,0.5-1.8
		C39.58,30.86,39.39,30.22,39.08,29.77L39.08,29.77z"/>
	<path class="st1" d="M38.79,33.15c-0.26,0.38-0.59,0.62-0.97,0.62c-0.38,0-0.71-0.24-0.97-0.62c-0.28-0.4-0.45-0.97-0.45-1.61
		c0-0.62,0.17-1.19,0.45-1.59c0.26-0.4,0.59-0.64,0.97-0.64c0.38,0,0.71,0.24,0.97,0.64c0.26,0.4,0.43,0.97,0.43,1.59
		C39.22,32.18,39.06,32.75,38.79,33.15L38.79,33.15z"/>
	<path class="st1" d="M30.26,36.38c-0.62,0-1.11,0.5-1.11,1.14c0,0.62,0.5,1.14,1.11,1.14c0.64,0,1.14-0.52,1.14-1.14
		C31.4,36.88,30.9,36.38,30.26,36.38L30.26,36.38z"/>
	<path class="st1" d="M45.45,36.38c-0.64,0-1.14,0.5-1.14,1.14c0,0.62,0.5,1.14,1.14,1.14c0.62,0,1.11-0.52,1.11-1.14
		C46.57,36.88,46.07,36.38,45.45,36.38L45.45,36.38z"/>
	<path class="st5" d="M58.08,41.38c-0.43-0.21-0.9-0.31-1.42-0.28c0-0.02,0-0.02,0-0.05c-0.05-1.33,0.62-2.35,1.42-3.29
		c0.33-0.4,0.66-0.76,0.97-1.14c0.21,1.52,0.85,4.24,0.05,5.76C58.82,41.9,58.46,41.59,58.08,41.38L58.08,41.38z"/>
	<path class="st5" d="M47.3,63.89l0.33,0.12c0.21,0.09,0.59,0.05,0.97,0c0.43-0.05,0.85-0.12,1.14,0.02
		c0.38,0.21,0.64,0.4,0.83,0.57c0.4,0.31,0.64,0.47,1.61,0.31c0.05,0,0.12,0.02,0.17,0.07c0.21,0.31,0.33,0.47,0.45,0.57l0,0
		c0.09,0.09,0.24,0.17,0.45,0.28c0.64-2.28,1.71-4.36,3.08-6.23c1.42-1.9,3.18-3.55,5.19-4.83c0.07-1.66-0.07-3.1-0.47-4.48
		c-0.38-1.28-0.97-2.46-1.8-3.72c-0.24,1.49-0.57,2.7-1.28,3.65c-0.76,1.04-1.94,1.8-3.86,2.32c-0.02,0-0.05,0-0.07,0.02v3.48
		c0,0.02-0.02,0.09-0.05,0.12c-0.19,0.21-0.36,0.47-0.55,0.81c-0.19,0.36-0.38,0.76-0.57,1.26c-0.05,0.14-0.31,0.09-0.31-0.07v-4.65
		c-0.02,0-0.02,0-0.02,0c-0.05,0.17-0.09,0.31-0.14,0.47c-0.12,0.45-0.26,0.88-0.5,1.28c-0.28,0.45-0.71,0.66-1.14,0.9
		c-0.26,0.14-0.52,0.26-0.73,0.45c-1.07,0.97-1.75,2.09-2.16,3.32C47.47,61.14,47.3,62.47,47.3,63.89L47.3,63.89z"/>
	<path class="st1" d="M56.5,43.18L56.5,43.18c-0.12-0.02-0.21,0.02-0.31,0.12c-0.12,0.1-0.19,0.26-0.21,0.43
		c-0.02,0.19,0,0.36,0.07,0.47c0.07,0.12,0.17,0.21,0.26,0.21l0,0c0.12,0.02,0.21-0.02,0.31-0.12c0.12-0.09,0.19-0.26,0.21-0.43
		c0.02-0.19,0-0.36-0.07-0.47C56.71,43.27,56.62,43.2,56.5,43.18L56.5,43.18z"/>
	<path class="st1" d="M53.68,36.99c-0.19-0.19-0.36-0.33-0.5-0.47c-0.59-0.52-0.88-0.78-1.11-2.04l0.02-0.07
		c0.19-0.59,0.38-1.02,0.66-1.23c0.69-0.52,1.45,0.09,1.37,0.85c0,0.17-0.07,0.31-0.17,0.52c0.09,0.24,0.21,0.47,0.38,0.59
		c0.12,0.09,0.28,0.05,0.52-0.26c0.12-0.19,0.21-0.4,0.24-0.64c0.05-0.38-0.02-0.78-0.19-1.16c-0.17-0.36-0.4-0.71-0.71-0.92
		c-0.21-0.14-0.43-0.26-0.66-0.28c-0.76,0.09-1.26,0.31-1.59,0.66c-0.33,0.33-0.52,0.83-0.64,1.47c-0.12,0.62,0.02,1.23,0.31,1.8
		c0.31,0.57,0.73,1.11,1.23,1.59l0.05,0.07v19.86c0.07-0.19,0.17-0.36,0.24-0.5c0.19-0.33,0.38-0.62,0.54-0.83V36.99L53.68,36.99z"
		/>
	<path class="st2" d="M27.02,63.01c-0.14-0.88-0.31-1.75-0.43-2.65c-0.12-1.19-0.17-2.39-0.21-3.6c-0.05-0.92-0.07-1.85-0.17-2.77
		c0-0.02-0.02-0.09-0.05-0.12c-0.31-0.31-0.59-0.62-0.9-0.95c-0.73-0.83-1.49-1.66-2.42-2.18V37.59c0.47-0.47,0.92-1.04,1.23-1.64
		c0.31-0.64,0.47-1.3,0.33-2.01c-0.12-0.69-0.33-1.23-0.71-1.64c-0.36-0.36-0.83-0.59-1.49-0.71c-0.09-0.02-0.21-0.05-0.33-0.05
		c0,0,0,0-0.02,0c-0.02,0-0.02,0-0.02,0H21.8c-0.31,0.05-0.57,0.17-0.81,0.33c-0.05,0.05-0.12,0.09-0.17,0.17
		c-0.28,0.24-0.5,0.57-0.66,0.92c-0.17,0.43-0.26,0.88-0.21,1.3c0.05,0.31,0.14,0.57,0.31,0.81c0.21,0.28,0.4,0.4,0.57,0.45
		c0.17,0.02,0.31,0,0.43-0.09c0.24-0.19,0.4-0.52,0.52-0.83c0-0.02,0-0.12,0-0.14c-0.12-0.21-0.17-0.33-0.19-0.45
		c0-0.12,0.02-0.26,0.09-0.45c0.05-0.02,0.07-0.05,0.12-0.07c0,0,0.02,0,0.02-0.02h0.02c0.14-0.07,0.26-0.09,0.36-0.09
		c0.09,0,0.17,0.02,0.24,0.09c0.21,0.14,0.38,0.5,0.55,1c-0.19,0.95-0.4,1.26-0.78,1.61c-0.07,0.07-0.14,0.14-0.21,0.19
		c-0.05,0.05-0.09,0.09-0.14,0.12c0,0.02-0.02,0.02-0.02,0.05c0,0-0.02,0-0.02,0.02c-0.12,0.09-0.24,0.21-0.38,0.36
		c-0.02,0.02-0.05,0.09-0.05,0.12v9.05h-0.55v-0.09c-0.09-0.69-0.28-1.35-0.57-1.99c-0.4-0.92-0.97-1.75-1.66-2.49l-0.09-0.36
		c0-0.26,0-0.5-0.02-0.76c-0.02-0.52-0.02-1.02-0.07-1.52c-0.09-0.81-0.24-1.59-0.62-2.37l-0.38-0.81c-0.05-0.12-0.24-0.12-0.28,0
		c-0.05,0.07-0.09,0.14-0.14,0.21c-0.09,0.17-0.19,0.33-0.31,0.5c-0.07,0.12-0.14,0.24-0.21,0.36c-0.05-0.12-0.09-0.24-0.17-0.36
		c-0.09-0.21-0.19-0.43-0.31-0.64c-0.05-0.09-0.17-0.12-0.24-0.07c-0.97,0.69-1.42,1.87-1.54,3.18c-0.17,1.66,0.19,3.53,0.69,4.72
		c-0.05,0.52-0.28,0.71-0.57,0.95c-0.21,0.17-0.45,0.36-0.66,0.69c-0.24,0.38-0.33,0.83-0.4,1.26c-0.02,0.09-0.05,0.19-0.07,0.28
		v0.05c0.05,0.43,0.19,0.76,0.4,1.07c0.19,0.24,0.4,0.45,0.66,0.64l-0.38,0.85c-0.19,0.59-0.4,1.18-0.62,1.75
		c-0.5,1.42-1,2.82-1.26,4.34c-0.47,2.77-0.64,5.59-0.71,8.41c0,0,0.02,0.09,0.05,0.09l0.26,0.33l0.02,0.02
		c0.47,0.36,0.66,0.36,0.43,0.26l-0.31,2.63h10.07h0.02c0.12,0,2.91,0,4.22,0c0-0.02,0-0.05-0.02-0.05L25.4,65.5l1.85,0.17
		c0.09,0,0.19-0.09,0.17-0.19C27.32,64.65,27.18,63.84,27.02,63.01L27.02,63.01z"/>
	<path class="st1" d="M21.71,46.14v-9.15c0.02-0.02,0.05-0.05,0.09-0.07V36.9l0.02-0.02l0.02-0.02c0.14-0.12,0.26-0.24,0.36-0.31
		c0-0.02,0-0.02,0.02-0.02c0.59-0.52,0.88-0.78,1.09-2.04v-0.07c-0.19-0.59-0.4-1.02-0.66-1.23c-0.14-0.09-0.28-0.14-0.45-0.14
		c-0.12,0-0.21,0-0.36,0.05l-0.02,0.02H21.8c-0.12,0.05-0.24,0.12-0.36,0.19c-0.02,0.02-0.07,0.07-0.07,0.09
		c-0.09,0.28-0.14,0.45-0.12,0.64c0.02,0.17,0.07,0.31,0.19,0.52c-0.12,0.24-0.24,0.47-0.38,0.59c-0.07,0.05-0.14,0.05-0.24,0
		c-0.09-0.02-0.19-0.12-0.28-0.26c-0.14-0.19-0.21-0.4-0.24-0.64c-0.05-0.38,0.02-0.78,0.17-1.16c0.09-0.19,0.21-0.38,0.36-0.57
		c0.12-0.14,0.24-0.26,0.38-0.36c0.17-0.14,0.38-0.24,0.59-0.26v-0.02h0.02h0.02h0.02c0.12,0.02,0.21,0.02,0.33,0.05
		c0.57,0.12,0.97,0.33,1.26,0.62c0.33,0.33,0.5,0.83,0.62,1.47c0.12,0.62-0.02,1.23-0.31,1.8c-0.28,0.57-0.73,1.11-1.21,1.59
		c-0.02,0.02-0.05,0.09-0.05,0.14v13.01c-0.12-0.05-0.21-0.07-0.31-0.12h-0.02c0,0,0,0,0-0.02c-0.02,0-0.02,0-0.02,0
		c-0.02,0-0.02,0-0.02,0c-0.02,0-0.02,0-0.02,0c0-0.02,0-0.02,0-0.02h-0.02h-0.02c-0.02-0.02-0.07-0.02-0.12-0.05
		c-0.02,0-0.05-0.02-0.07-0.02c0,0,0,0-0.02,0h-0.02H21.8c-0.02,0-0.02,0-0.02,0h-0.02v0.02c0,0-0.02,0-0.05,0V46.14L21.71,46.14z"
		/>
	<path class="st1" d="M18.41,43.27c0.07,0.02,0.12,0.05,0.19,0.09c0.12,0.07,0.21,0.21,0.26,0.38c0.05,0.17,0.02,0.33-0.02,0.47
		c-0.07,0.12-0.17,0.21-0.28,0.24c-0.05,0.02-0.09,0.02-0.14,0.02c-0.07-0.02-0.14-0.05-0.21-0.09c-0.12-0.09-0.21-0.21-0.24-0.4
		c-0.05-0.17-0.05-0.33,0.02-0.45c0.05-0.12,0.14-0.21,0.26-0.26C18.3,43.27,18.37,43.27,18.41,43.27L18.41,43.27z"/>
	<path class="st5" d="M16.97,36.5c0.02-0.02,0.02-0.02,0.02-0.05c0.09-0.14,0.17-0.26,0.26-0.4l0.24,0.5
		c0.57,1.21,0.62,2.46,0.66,3.77l0.05,0.83c-0.47-0.19-0.88-0.05-1.21,0.21c-0.28,0.24-0.55,0.57-0.74,0.85
		c-0.02,0.02-0.02,0.02-0.02,0.05c-0.02,0-0.02,0.02-0.02,0.02c-0.02,0.02-0.02,0.02-0.02,0.02c-0.02,0.02-0.02,0.02-0.05,0.05
		C15.4,39.65,15.9,38.27,16.97,36.5L16.97,36.5z"/>
	<path class="st5" d="M18.41,64.74c-0.47-0.05-6.19-0.52-6.56-0.78l-0.19-0.26c0.07-2.75,0.24-5.55,0.69-8.27
		c0.26-1.49,0.76-2.89,1.26-4.29c0.19-0.57,0.4-1.14,0.59-1.75l0.36-0.81c0,0,0,0,0.02,0c0,0,0,0,0.02,0c0,0,0.02,0,0.02-0.02
		c0,0,0,0,0.02,0c0.47-0.28,0.69-0.47,0.83-0.59c0.09-0.07,0.14-0.12,0.21-0.14c0.26-0.07,0.83,0.02,1.3,0.12
		c0.24,0.05,0.43,0.09,0.57,0.12c0.28,0.1,0.57,0.17,0.85,0.21c0.71,0.14,1.45,0.07,2.01-0.47c0.21-0.19,0.33-0.43,0.4-0.66
		c0.07-0.26,0.07-0.55,0.05-0.83h0.5v4.15c-0.19,0.09-0.38,0.17-0.55,0.26c-0.9,0.47-1.71,1.04-2.42,1.75
		c-0.52,0.47-1,1.02-1.42,1.61c-1.56,2.11-2.63,4.74-3.46,7.42c0,0.05,0,0.07-0.02,0.12c0,0.02-0.02,0.07-0.02,0.09v0.02
		c-0.02,0.02-0.02,0.07-0.02,0.09c-0.02,0.05-0.02,0.07-0.02,0.12c-0.02,0.07,0.05,0.19,0.12,0.19c0.17,0.02,0.33,0.05,0.52,0.07
		c0.95,0.14,1.82,0.28,2.82,0.33c0.02,0,0.07-0.02,0.09-0.05c0.02,0,0.05-0.02,0.05-0.02c0.5-0.66,0.95-1.37,1.37-2.11
		c0-0.02,0,1.02,0,1.02c0.02,1.14,0.07,2.25,0.12,3.36C18.48,64.74,18.44,64.74,18.41,64.74L18.41,64.74z"/>
	<path class="st5" d="M25.17,65.12c-0.12,0-0.21,0.12-0.17,0.24l0.64,1.59H24.6l0.64-6.26c0-0.07,0.02-0.17-0.14-0.17
		c-0.17-0.02-0.19,0.05-0.19,0.14l-0.64,6.26c0,0.02,0,0.02,0,0.02h-0.88l0.64-5.07c0-0.07,0.02-0.17-0.14-0.17
		c-0.17-0.02-0.19,0.05-0.19,0.14l-0.64,5.09h-4.12c0-0.66-0.02-1.33-0.05-1.99c0-0.02,0-0.02,0-0.02
		c-0.05-1.19-0.12-2.35-0.14-3.53c0-0.02,0-0.9,0-0.92l0.57-1.66c0.02-0.02,0.02-0.05,0.05-0.07v-0.02c0,0,0,0,0-0.02h0.02
		c0,0,0,0,0-0.02c0-0.02,0-0.02,0-0.02s0,0,0.02,0v-0.02v-0.02c0,0,0,0,0.02,0c0,0,0,0,0-0.02c0,0,0,0,0-0.02c0-0.02,0-0.02,0-0.02
		s0,0,0.02,0l1.37-2.18l0.33-0.55c0.02-0.02,0.02-0.05,0.02-0.07c0.07-0.43-0.12-0.31-0.36-0.07c-0.26,0.28-0.57,0.71-0.66,0.85
		c0,0,0,0.02-0.02,0.02c0,0.02,0,0.02-0.02,0.05c0,0,0,0.02-0.02,0.02c0,0.02,0,0.02-0.02,0.05c0,0,0,0.02-0.02,0.02
		c0,0.02,0,0.05-0.02,0.05c0,0.02,0,0.02-0.02,0.05l-0.02,0.02c0,0.02-0.02,0.05-0.02,0.05c0,0.02-0.02,0.02-0.02,0.05
		c0,0-0.02,0.02-0.02,0.05c-0.02,0-0.02,0.02-0.02,0.02c-0.02,0.02-0.02,0.05-0.02,0.05c-0.02,0.02-0.02,0.02-0.02,0.05
		c-0.02,0.02-0.02,0.02-0.05,0.05c0,0.02,0,0.02-0.02,0.05c-0.24,0.43-0.43,0.92-0.69,1.35l-0.02,0.02
		c-0.05,0.14-0.12,0.24-0.19,0.38c0,0.02,0,0.02,0,0.02c-0.02,0-0.02,0-0.02,0c-0.14,0.26-0.28,0.5-0.43,0.73
		c-0.45,0.78-0.9,1.56-1.42,2.3c-0.05,0.07-0.09,0.14-0.17,0.21c-0.97-0.05-1.97-0.17-2.94-0.33c-0.02,0-0.02,0-0.02,0h-0.02
		c-0.02,0-0.02,0-0.02,0c0-0.02,0-0.02,0-0.02h-0.02c0.76-2.54,1.71-4.88,3.2-7.11c0.02-0.02,0.05-0.07,0.07-0.09
		c0.4-0.59,0.85-1.16,1.35-1.66c0.73-0.78,1.54-1.45,2.42-1.9c0.24-0.12,0.5-0.24,0.76-0.33l0.19-0.07h0.02h0.02
		c0.02,0,0.02,0,0.02,0h0.05c0.12,0.05,0.21,0.09,0.31,0.12c1.11,0.47,1.97,1.42,2.82,2.37c0.28,0.31,0.57,0.62,0.85,0.9
		c0.07,0.92,0.12,1.82,0.14,2.73c0.05,1.19,0.09,2.39,0.24,3.63c0.12,0.9,0.28,1.78,0.43,2.68c0.14,0.74,0.28,1.47,0.38,2.23
		L25.17,65.12L25.17,65.12z"/>
	<path class="st2" d="M19.88,64.22c0.05-0.12,0.07-0.24,0.12-0.36c0.09-0.24,0.17-0.45,0.19-0.69c0.02-0.24,0-0.43-0.02-0.62
		c-0.02-0.31-0.07-0.59,0.07-1.07l0.02-0.05l2.06-2.44c0.05-0.12-0.05-0.33-0.14-0.54c-0.09-0.21-0.17-0.43-0.17-0.64l0,0
		c-0.02-0.33,0.09-0.78,0.19-1.11c0.05-0.17,0.09-0.31,0.09-0.38c0.02-0.07,0.02-0.17,0.19-0.14c0.17,0.02,0.17,0.09,0.14,0.19
		c0,0.09-0.05,0.26-0.09,0.43c-0.09,0.31-0.19,0.71-0.19,1.02l0,0l0,0l0,0c0,0.14,0.07,0.31,0.14,0.5c0.14,0.31,0.28,0.62,0.12,0.88
		v0.02l-2.06,2.42c-0.09,0.38-0.07,0.62-0.05,0.88c0.02,0.21,0.05,0.43,0.02,0.69c-0.02,0.28-0.09,0.52-0.19,0.78
		c-0.05,0.12-0.09,0.24-0.12,0.33c-0.02,0.09-0.05,0.17-0.21,0.12C19.84,64.39,19.86,64.32,19.88,64.22L19.88,64.22z"/>
</g>
</svg>
